<svg xmlns="http://www.w3.org/2000/svg" version="1.1" xmlns:xlink="http://www.w3.org/1999/xlink" xmlns:svgjs="http://svgjs.dev/svgjs" width="1000" height="1000" viewBox="0 0 1000 1000"><rect width="1000" height="1000" fill="#000000"></rect><g transform="matrix(0.7,0,0,0.7,149.57575757575756,282.1265587044535)"><svg viewBox="0 0 396 247" data-background-color="#111111" preserveAspectRatio="xMidYMid meet" height="623" width="1000" xmlns="http://www.w3.org/2000/svg" xmlns:xlink="http://www.w3.org/1999/xlink"><g id="tight-bounds" transform="matrix(1,0,0,1,0.2400000000000091,-0.09999999999999432)"><svg viewBox="0 0 395.52 247.2" height="247.2" width="395.52"><g><svg></svg></g><g><svg viewBox="0 0 395.52 247.2" height="247.2" width="395.52"><g transform="matrix(1,0,0,1,75.54432,100.81915876651982)"><svg viewBox="0 0 244.43135999999998 45.56168246696035" height="45.56168246696035" width="244.43135999999998"><g><svg viewBox="0 0 244.43135999999998 45.56168246696035" height="45.56168246696035" width="244.43135999999998"><g><svg viewBox="0 0 244.43135999999998 45.56168246696035" height="45.56168246696035" width="244.43135999999998"><g><svg viewBox="0 0 244.43135999999998 45.56168246696035" height="45.56168246696035" width="244.43135999999998"><g><svg viewBox="0 0 244.43135999999998 45.56168246696035" height="45.56168246696035" width="244.43135999999998"><g><svg viewBox="0 0 244.43135999999998 45.56168246696035" height="45.56168246696035" width="244.43135999999998"><g transform="matrix(1,0,0,1,0,0)"><svg width="244.43135999999998" viewBox="4.58 -33.77 183.6 34.230000000000004" height="45.56168246696035" data-palette-color="#a437db"><path d="M8.44-33.27L8.44 0 4.58 0 4.58-33.27 8.44-33.27ZM39.81-28.97Q44.11-24.67 44.11-16.68 44.11-8.7 39.65-4.35 35.18 0 26.77 0L26.77 0 17.57 0 17.57-33.27 27.75-33.27Q35.51-33.27 39.81-28.97ZM21.43-3.34L26.14-3.34Q33.04-3.34 36.52-6.74 40.01-10.14 40.01-16.72 40.01-23.31 36.75-26.61 33.49-29.9 27.05-29.9L27.05-29.9 21.43-29.9 21.43-3.34ZM59.32-24.37L55.4-14.05 66.15-14.05 62.28-24.37Q61.5-26.49 60.74-29.17L60.74-29.17Q60.28-27.1 59.32-24.37L59.32-24.37ZM62.43-33.39L75.5 0 71.51 0 67.36-10.57 54.04-10.57 49.94 0 46.03 0 59.17-33.39 62.43-33.39ZM101.46-33.27L105.33-33.27 105.33 0 101.46 0 101.46-15.65 83.94-15.65 83.94 0 80.07 0 80.07-33.27 83.94-33.27 83.94-19.11 101.46-19.11 101.46-33.27ZM116.7-4.02Q112.7-8.54 112.7-16.7 112.7-24.85 116.71-29.31 120.72-33.77 127.99-33.77 135.25-33.77 139.28-29.23 143.32-24.7 143.32-16.7 143.32-8.7 139.27-4.12 135.23 0.46 127.96 0.46 120.69 0.46 116.7-4.02L116.7-4.02ZM136.42-26.87Q133.61-30.33 128.09-30.33 122.56-30.33 119.68-26.85 116.8-23.36 116.8-16.65 116.8-9.93 119.68-6.43 122.56-2.93 128.07-2.93 133.58-2.93 136.4-6.41 139.22-9.88 139.22-16.65 139.22-23.41 136.42-26.87ZM184.09-33.27L188.18-33.27 179.28 0 175.47 0 168.77-22.27Q168.39-23.43 167.68-26.01L167.68-26.01Q167.13-28.24 167.08-28.72L167.08-28.72Q166.57-25.68 165.48-22.14L165.48-22.14 158.99 0 155.14 0 146.3-33.27 150.39-33.27 155.65-12.71Q156.76-8.37 157.24-4.88L157.24-4.88Q157.85-9.07 159.06-13.04L159.06-13.04 165.03-33.27 169.12-33.27 175.37-12.84Q176.53-9.15 177.21-4.88L177.21-4.88Q177.62-8.01 178.86-12.77L178.86-12.77 184.09-33.27Z" opacity="1" transform="matrix(1,0,0,1,0,0)" fill="#ffffff" class="undefined-text-0" data-fill-palette-color="primary" id="text-0"></path></svg></g></svg></g></svg></g></svg></g></svg></g></svg></g></svg></g><path d="M207.698 94.819L207.698 33.492 387.914 33.492 387.914 213.708 207.698 213.708 207.698 152.381 211.807 152.381 211.807 209.599 383.805 209.599 383.805 37.601 211.807 37.601 211.807 94.819Z" fill="#ffffff" stroke="transparent" data-fill-palette-color="primary"></path></svg></g><defs></defs></svg><rect width="395.52" height="247.2" fill="none" stroke="none" visibility="hidden"></rect></g></svg></g></svg>